<svg width="45" height="32" viewBox="0 0 45 32" fill="none" xmlns="http://www.w3.org/2000/svg">
<path fill-rule="evenodd" clip-rule="evenodd" d="M8.0625 19.5625L26.5215 26.2302L23.7918 29.9864C22.7443 31.4278 20.7267 31.7471 19.2853 30.6996C19.1499 30.6012 19.0223 30.4924 18.9038 30.3741L8.0625 19.5625Z" fill="#008578"/>
<path fill-rule="evenodd" clip-rule="evenodd" d="M2.64211 6.97891L40.5511 0L5.10648 16.6131L0.939921 12.4281C-0.317227 11.1654 -0.312719 9.12266 0.949982 7.86551C1.41159 7.40593 2.0015 7.09684 2.64211 6.97891Z" fill="#13B1ED"/>
<path fill-rule="evenodd" clip-rule="evenodd" d="M44.0572 1.84375C43.9979 2.07643 43.706 2.53769 43.1816 3.22752C42.6571 3.91735 37.7372 10.7166 28.422 23.6253L11.0156 17.3039L44.0572 1.84375Z" fill="#0772BA"/>
</svg>
