<svg width="976" height="538" viewBox="0 0 976 538" fill="none" xmlns="http://www.w3.org/2000/svg">
<g clip-path="url(#clip0_587_22229)">
<path d="M530.976 0H476.702V383.397H530.976V0Z" fill="white"/>
<path fill-rule="evenodd" clip-rule="evenodd" d="M598.781 164.898L650.438 216.487V383.72L598.781 383.397V164.898Z" fill="white"/>
<path fill-rule="evenodd" clip-rule="evenodd" d="M408.99 0.523438L408.981 51.2054L196.265 51.206C119.024 51.206 56.2616 113.196 55.014 190.14L54.9951 192.476L54.9955 192.796C55.1719 270.64 118.42 333.602 196.265 333.426L408.932 332.944L408.932 330.844L408.923 383.339L191.952 383.917C86.2221 384.199 0.282532 298.716 0.00068022 192.986L0 192.476C0 86.4636 85.9401 0.523438 191.953 0.523438H408.99Z" fill="white"/>
<path fill-rule="evenodd" clip-rule="evenodd" d="M975.915 143.094L975.905 192.304L842.79 192.305C804.235 192.305 772.906 223.247 772.284 261.654L772.274 262.82C772.274 301.765 803.845 333.336 842.79 333.336H975.881L975.872 383.662L838.916 384.027C772.473 384.203 718.467 330.484 718.29 264.041L718.29 263.721C718.29 197.1 772.297 143.094 838.917 143.094H975.915Z" fill="white"/>
<path fill-rule="evenodd" clip-rule="evenodd" d="M622.915 106L722.915 142.122L708.127 162.47C702.453 170.279 691.522 172.009 683.714 166.334C682.98 165.801 682.289 165.212 681.647 164.571L622.915 106Z" fill="white"/>
<path fill-rule="evenodd" clip-rule="evenodd" d="M593.546 37.8077L798.915 0L606.896 90L584.324 67.3283C577.514 60.4877 577.538 49.4213 584.379 42.6108C586.88 40.121 590.075 38.4466 593.546 37.8077Z" fill="white"/>
<path fill-rule="evenodd" clip-rule="evenodd" d="M817.915 10C817.594 11.2605 816.013 13.7593 813.172 17.4964C810.33 21.2335 783.677 58.0681 733.213 128L638.915 93.7542L817.915 10Z" fill="white"/>
<path d="M4.20835 522.027V504.302H12.6852C22.5447 504.302 26.8733 499.127 26.8733 492.405C26.8733 485.565 22.4245 480.45 12.6852 480.45H0V522.027H4.20835ZM12.6852 500.733H4.20835V483.959H12.6852C19.7792 483.959 22.5447 487.052 22.5447 492.405C22.5447 497.521 19.7792 500.733 12.6852 500.733ZM53.6264 522.503C60.1794 522.503 64.7484 518.993 66.6722 514.83V522.027H70.8806V489.55H66.6722V496.688C64.8085 492.584 60.2996 489.075 53.6865 489.075C44.6686 489.075 37.9954 495.558 37.9954 505.729C37.9954 515.9 44.6686 522.503 53.6264 522.503ZM54.468 518.874C47.5543 518.874 42.2638 513.938 42.2638 505.729C42.2638 497.461 47.5543 492.703 54.468 492.703C61.2014 492.703 66.6722 497.699 66.6722 505.789C66.6722 513.878 61.2014 518.874 54.468 518.874ZM90.7199 522.027V503.885C90.7199 495.736 95.3491 493.298 100.82 493.298H101.962V488.956C96.311 488.956 92.5235 491.335 90.7199 495.32V489.55H86.5116V522.027H90.7199ZM128.775 522.027V518.458H124.928C121.14 518.458 119.758 517.209 119.758 513.224V493.06H128.775V489.55H119.758V481.402H115.489V489.55H110.92V493.06H115.489V513.224C115.489 519.707 118.555 522.027 124.266 522.027H128.775ZM178.554 522.503C187.812 522.503 195.087 516.079 195.087 505.789C195.087 495.439 187.933 489.075 178.674 489.075C169.476 489.075 162.262 495.439 162.262 505.789C162.262 516.079 169.296 522.503 178.554 522.503ZM178.554 518.874C172.302 518.874 166.53 514.711 166.53 505.789C166.53 496.867 172.362 492.703 178.614 492.703C184.867 492.703 190.758 496.867 190.758 505.789C190.758 514.711 184.746 518.874 178.554 518.874ZM214.085 522.027V493.06H221.72V489.55H214.085V487.29C214.085 482.591 215.888 480.569 221.479 480.569V477C213.183 477 209.876 480.331 209.876 487.29V489.55H205.307V493.06H209.876V522.027H214.085ZM271.318 522.027V518.458H267.47C263.683 518.458 262.3 517.209 262.3 513.224V493.06H271.318V489.55H262.3V481.402H258.032V489.55H253.463V493.06H258.032V513.224C258.032 519.707 261.098 522.027 266.809 522.027H271.318ZM288.452 522.027V504.302C288.452 496.391 292.721 492.584 298.853 492.584C304.865 492.584 308.833 496.272 308.833 503.469V522.027H312.981V502.993C312.981 493.476 307.149 488.956 299.875 488.956C294.885 488.956 290.556 491.097 288.452 495.082V478.011H284.244V522.027H288.452ZM342.499 522.503C350.736 522.503 356.026 517.863 357.529 511.737H353.08C351.878 516.079 348.09 518.993 342.499 518.993C336.367 518.993 331.017 515.008 330.656 507.395H357.89C358.01 506.264 358.01 505.432 358.01 504.123C358.01 495.855 352.118 489.075 342.499 489.075C333.061 489.075 326.387 495.439 326.387 505.789C326.387 516.079 333.181 522.503 342.499 522.503ZM353.742 504.004H330.656C331.137 496.45 336.367 492.643 342.319 492.643C348.391 492.643 353.922 496.45 353.742 504.004ZM413.079 522.443C424.562 522.443 432.858 513.997 433.52 502.993V499.96H411.396V503.35H429.071C428.41 512.807 421.917 518.696 413.079 518.696C403.761 518.696 396.607 511.975 396.607 501.209C396.607 490.443 403.761 483.781 413.079 483.781C419.813 483.781 424.923 487.231 427.267 492.584H432.197C429.191 484.673 422.097 479.974 413.079 479.974C401.296 479.974 392.278 488.777 392.278 501.209C392.278 513.7 401.296 522.443 413.079 522.443ZM462.317 522.443C470.854 522.443 477.587 517.566 477.587 506.562V480.45H473.379V506.621C473.379 515.246 468.93 518.755 462.377 518.755C455.824 518.755 451.255 515.246 451.255 506.621V480.45H447.047V506.562C447.047 517.566 453.78 522.443 462.317 522.443ZM508.068 522.443C516.605 522.443 523.338 517.566 523.338 506.562V480.45H519.13V506.621C519.13 515.246 514.681 518.755 508.128 518.755C501.575 518.755 497.006 515.246 497.006 506.621V480.45H492.797V506.562C492.797 517.566 499.531 522.443 508.068 522.443ZM551.173 522.027C565.181 522.027 573.417 514.235 573.417 501.328C573.417 488.301 565.181 480.45 551.173 480.45H538.728V522.027H551.173ZM551.173 518.577H542.937V483.9H551.173C563.077 483.9 569.149 490.562 569.149 501.328C569.149 512.034 563.077 518.577 551.173 518.577ZM623.857 522.503C632.094 522.503 637.384 517.863 638.887 511.737H634.438C633.236 516.079 629.448 518.993 623.857 518.993C617.725 518.993 612.375 515.008 612.014 507.395H639.248C639.368 506.264 639.368 505.432 639.368 504.123C639.368 495.855 633.476 489.075 623.857 489.075C614.419 489.075 607.745 495.439 607.745 505.789C607.745 516.079 614.539 522.503 623.857 522.503ZM635.1 504.004H612.014C612.495 496.45 617.725 492.643 623.677 492.643C629.749 492.643 635.28 496.45 635.1 504.004ZM667.083 522.503C675.319 522.503 680.67 517.923 682.173 511.439H677.664C676.522 516.198 672.614 518.993 667.083 518.993C660.65 518.993 655.42 514.592 655.42 505.789C655.42 496.986 660.65 492.643 667.083 492.643C672.614 492.643 676.582 495.499 677.664 500.138H682.173C680.67 493.417 675.319 489.075 667.083 489.075C657.825 489.075 651.151 495.499 651.151 505.789C651.151 516.079 657.825 522.503 667.083 522.503ZM710.309 522.503C719.567 522.503 726.842 516.079 726.842 505.789C726.842 495.439 719.687 489.075 710.429 489.075C701.231 489.075 694.016 495.439 694.016 505.789C694.016 516.079 701.05 522.503 710.309 522.503ZM710.309 518.874C704.056 518.874 698.285 514.711 698.285 505.789C698.285 496.867 704.116 492.703 710.369 492.703C716.621 492.703 722.513 496.867 722.513 505.789C722.513 514.711 716.501 518.874 710.309 518.874ZM751.851 522.503C758.645 522.503 763.274 518.636 763.274 513.402C763.093 501.922 743.675 506.621 743.675 497.818C743.675 494.963 746.44 492.643 750.829 492.643C755.819 492.643 758.524 495.38 758.765 499.008H762.973C762.612 492.762 757.983 489.075 750.949 489.075C744.036 489.075 739.406 493.06 739.406 497.878C739.406 510.071 759.126 505.372 759.126 513.402C759.126 516.495 756.48 518.993 751.791 518.993C746.44 518.993 743.314 516.436 742.953 512.867H738.625C739.166 518.815 744.396 522.503 751.851 522.503ZM784.797 537.313L804.275 489.55H799.947L789.125 517.268L777.943 489.55H773.314L786.78 521.848L780.408 537.313H784.797ZM827.301 522.503C834.094 522.503 838.723 518.636 838.723 513.402C838.543 501.922 819.125 506.621 819.125 497.818C819.125 494.963 821.89 492.643 826.279 492.643C831.269 492.643 833.974 495.38 834.215 499.008H838.423C838.062 492.762 833.433 489.075 826.399 489.075C819.485 489.075 814.856 493.06 814.856 497.878C814.856 510.071 834.575 505.372 834.575 513.402C834.575 516.495 831.93 518.993 827.241 518.993C821.89 518.993 818.764 516.436 818.403 512.867H814.075C814.616 518.815 819.846 522.503 827.301 522.503ZM867.16 522.027V518.458H863.312C859.525 518.458 858.142 517.209 858.142 513.224V493.06H867.16V489.55H858.142V481.402H853.874V489.55H849.304V493.06H853.874V513.224C853.874 519.707 856.94 522.027 862.651 522.027H867.16ZM894.274 522.503C902.51 522.503 907.8 517.863 909.303 511.737H904.855C903.652 516.079 899.865 518.993 894.274 518.993C888.141 518.993 882.791 515.008 882.43 507.395H909.664C909.784 506.264 909.784 505.432 909.784 504.123C909.784 495.855 903.893 489.075 894.274 489.075C884.835 489.075 878.162 495.439 878.162 505.789C878.162 516.079 884.955 522.503 894.274 522.503ZM905.516 504.004H882.43C882.911 496.45 888.141 492.643 894.093 492.643C900.165 492.643 905.696 496.45 905.516 504.004ZM927.7 522.027V504.421C927.7 496.51 931.848 492.584 937.86 492.584C943.692 492.584 947.539 496.272 947.539 503.469V522.027H951.688V504.421C951.688 496.51 955.896 492.584 961.848 492.584C967.679 492.584 971.467 496.272 971.467 503.469V522.027H975.615V502.993C975.615 493.476 969.844 488.956 962.569 488.956C957.339 488.956 952.529 491.632 950.726 496.926C948.742 491.513 944.052 488.956 938.581 488.956C933.952 488.956 929.804 491.037 927.7 495.142V489.55H923.492V522.027H927.7Z" fill="white"/>
</g>
<defs>
<clipPath id="clip0_587_22229">
<rect width="976" height="538" fill="white"/>
</clipPath>
</defs>
</svg>
